<svg id="Capa_1" data-name="Capa 1" xmlns="http://www.w3.org/2000/svg" viewBox="0 0 200 200"><defs><style>.cls-1{fill:#003b6e;}</style></defs><path class="cls-1" d="M17.11,74.43H14.9v6.78H8.79V59H18.4c4.78,0,8.24,3.21,8.24,7.85a7.1,7.1,0,0,1-3.52,6.26l4.4,8.06H20.71ZM14.9,69.28h2.79a2.42,2.42,0,1,0,0-4.81H14.9Z"/><path class="cls-1" d="M47.15,72.5A12,12,0,0,1,47,74.06H34.33a3.32,3.32,0,0,0,3.49,3,3.42,3.42,0,0,0,3.09-1.6h5.86a9,9,0,0,1-9,6.34,9.11,9.11,0,1,1,0-18.22c5.51,0,9.33,3.93,9.33,9ZM34.43,70.8h6.92a3.44,3.44,0,0,0-3.53-2.63A3.31,3.31,0,0,0,34.43,70.8Z"/><path class="cls-1" d="M68,64.09v17.1H63.48L63,80a8.06,8.06,0,0,1-5.16,1.79c-5.23,0-9-3.81-9-9.13a8.67,8.67,0,0,1,9-9.06A8.13,8.13,0,0,1,63,65.41l.6-1.32Zm-5.6,8.57a3.83,3.83,0,1,0-3.83,3.9A3.76,3.76,0,0,0,62.43,72.66Z"/><path class="cls-1" d="M80.21,81.77c-5.49,0-9.45-3.84-9.45-9.13s3.94-9.06,9.46-9.06c4.81,0,8.41,3,9.06,7.57H83.54a3.48,3.48,0,0,0-3.33-2.3,3.83,3.83,0,0,0,0,7.64A3.44,3.44,0,0,0,83.55,74h5.79a8.86,8.86,0,0,1-9.13,7.77Z"/><path class="cls-1" d="M103.26,76.05v5.16H99.21c-3.78,0-6.08-2.31-6.08-6.11V68.65H90V67.27l7.66-8.16h1.21v5h4.3v4.54H99v5.44a1.81,1.81,0,0,0,2,2Z"/><path class="cls-1" d="M112.1,74.05h6.3A2.35,2.35,0,0,0,121,76.41c1.28,0,2.5-.68,2.5-1.89,0-1.39-1.72-1.8-3.83-2.31-3.21-.8-7.3-1.78-7.3-6.82,0-4.37,3.21-6.87,8.44-6.87s8.36,2.73,8.36,7.24h-6.13a2,2,0,0,0-2.31-2.06c-1.08,0-2.13.47-2.13,1.5,0,1.26,1.67,1.68,3.76,2.21,3.26.84,7.53,1.93,7.53,7,0,4.84-3.72,7.35-8.87,7.35C115.6,81.75,112.1,78.88,112.1,74.05Z"/><path class="cls-1" d="M149.71,70.91v10.3h-5.89V71.6c0-2-.69-3-2.23-3-1.78,0-2.89,1.27-2.89,3.46v9.13h-5.89V57.94h5.89v7.3a7.25,7.25,0,0,1,4.56-1.64C147.19,63.6,149.71,66.48,149.71,70.91Z"/><path class="cls-1" d="M152.24,72.66c0-5.3,4-9.11,9.58-9.11s9.59,3.81,9.59,9.11-4,9.11-9.59,9.11S152.24,77.94,152.24,72.66Zm13.27,0a3.69,3.69,0,1,0-3.69,3.82A3.61,3.61,0,0,0,165.51,72.66Z"/><path class="cls-1" d="M193.09,72.66c0,5.33-3.73,9.13-9,9.13A8,8,0,0,1,180,80.65v6.74h-5.82V64.11h4l.74,1.36a7.92,7.92,0,0,1,5.25-1.92A8.69,8.69,0,0,1,193.09,72.66Zm-5.92,0a3.83,3.83,0,1,0-3.83,3.91A3.76,3.76,0,0,0,187.17,72.66Z"/><path class="cls-1" d="M24.59,114.51v11H16.68v-11L6.91,97.35h8.61l5.15,10.18,5.15-10.18h8.61Z"/><path class="cls-1" d="M56.28,103.77v21.74H50.49L49.85,124a10.29,10.29,0,0,1-6.57,2.28c-6.64,0-11.4-4.85-11.4-11.61s4.76-11.53,11.4-11.53a10.33,10.33,0,0,1,6.65,2.34l.76-1.68Zm-12,15.85a5,5,0,1,0-4.87-5,4.78,4.78,0,0,0,4.87,5Z"/><path class="cls-1" d="M75.16,103.69v6.85H72.25c-2.65,0-3.76,1.16-3.76,3.94v11H61V103.79h5l1.16,2.42a7.25,7.25,0,0,1,6-2.52Z"/><path class="cls-1" d="M100.59,95.94v29.59H95.05l-.7-1.61a10.06,10.06,0,0,1-6.56,2.35c-6.67,0-11.43-4.85-11.43-11.61s4.76-11.58,11.43-11.58a10.12,10.12,0,0,1,5.4,1.51V95.94Zm-6.93,18.72a4.87,4.87,0,1,0-4.87,5A4.79,4.79,0,0,0,93.66,114.66Z"/><path class="cls-1" d="M104.29,116.43h8c0,2,1.56,3,3.33,3s3.18-.87,3.18-2.41c0-1.77-2.2-2.28-4.88-2.93-4.08-1-9.28-2.26-9.28-8.68,0-5.55,4.08-8.73,10.73-8.73S126,100.15,126,105.89h-7.79c0-1.79-1.32-2.62-2.93-2.62-1.39,0-2.72.6-2.72,1.91,0,1.6,2.13,2.13,4.78,2.8,4.15,1.07,9.57,2.46,9.57,8.89,0,6.16-4.73,9.35-11.27,9.35C108.75,126.22,104.29,122.58,104.29,116.43Z"/><path class="cls-1" d="M153.77,103.77v21.74H148l-.64-1.54a10.27,10.27,0,0,1-6.56,2.28c-6.65,0-11.41-4.85-11.41-11.61s4.76-11.53,11.41-11.53a10.33,10.33,0,0,1,6.64,2.34l.76-1.68Zm-7.13,10.89a4.87,4.87,0,1,0-4.86,5A4.77,4.77,0,0,0,146.64,114.66Z"/><path class="cls-1" d="M158.49,95.94H166v29.59h-7.49Z"/><path class="cls-1" d="M193.09,114.46a13.4,13.4,0,0,1-.15,2H176.79a4.23,4.23,0,0,0,4.44,3.78,4.36,4.36,0,0,0,3.93-2h7.46c-1.53,5-5.93,8.06-11.39,8.06a11.41,11.41,0,0,1-11.81-11.6c0-6.67,5-11.57,11.81-11.57,7,0,11.86,5,11.86,11.38Zm-16.16-2.17h8.79a4.38,4.38,0,0,0-4.49-3.34A4.2,4.2,0,0,0,176.93,112.29Z"/></svg>