<svg id="Capa_1" data-name="Capa 1" xmlns="http://www.w3.org/2000/svg" viewBox="0 0 200 200"><defs><style>.cls-1{fill:#003b6e;}</style></defs><path class="cls-1" d="M20.55,86.6H24.5a1.48,1.48,0,0,0,1.64,1.48c.8,0,1.57-.43,1.57-1.19s-1.08-1.12-2.4-1.44c-2-.5-4.58-1.12-4.58-4.28,0-2.74,2-4.31,5.29-4.31s5.24,1.71,5.24,4.54H27.42A1.28,1.28,0,0,0,26,80.11c-.68,0-1.33.29-1.33.94s1,1,2.35,1.38c2.05.53,4.72,1.21,4.72,4.39s-2.33,4.61-5.56,4.61C22.75,91.43,20.55,89.63,20.55,86.6Z"/><path class="cls-1" d="M44.59,85.63a6.45,6.45,0,0,1-.08,1h-8a2.08,2.08,0,0,0,2.19,1.87,2.16,2.16,0,0,0,1.94-1h3.67a5.64,5.64,0,0,1-5.61,4,5.71,5.71,0,1,1,0-11.42,5.56,5.56,0,0,1,5.85,5.61Zm-8-1.07H41a2.16,2.16,0,0,0-2.21-1.65A2.07,2.07,0,0,0,36.62,84.56Z"/><path class="cls-1" d="M57.36,80.37V89.9c0,3.37-2.2,5.45-5.74,5.45-3,0-5.18-1.53-5.67-4.07h3.56a2.14,2.14,0,0,0,2.07,1.1,2.06,2.06,0,0,0,2.23-2.06V90a5.34,5.34,0,0,1-8.15-4.58A5.26,5.26,0,0,1,51,80a5.17,5.17,0,0,1,3.38,1.25l.47-.9Zm-5.73,7.39a2.34,2.34,0,1,0-2.29-2.34,2.23,2.23,0,0,0,2.29,2.34Z"/><path class="cls-1" d="M59.56,86.49V80.37h3.7v5.95c0,1.14.61,1.8,1.59,1.8s1.59-.67,1.59-1.8V80.37h3.69v6.12c0,3-2.11,5-5.28,5S59.56,89.49,59.56,86.49Z"/><path class="cls-1" d="M72.32,80.37H76V91.09H72.32Zm0-4.48H76V79H72.34Z"/><path class="cls-1" d="M94.78,84.36v6.73H91.09V84.82c0-1.12-.41-1.66-1.2-1.66-1,0-1.53.7-1.53,2v5.88h-3.6V84.82c0-1.09-.41-1.66-1.18-1.66-1,0-1.55.72-1.55,2v5.88H78.34V80.37h2.59l.53,1.15a4.13,4.13,0,0,1,3.13-1.47,3.62,3.62,0,0,1,3.08,1.58A4.17,4.17,0,0,1,91,80.05C93.26,80.05,94.78,81.84,94.78,84.36Z"/><path class="cls-1" d="M97,80.37h3.69V91.09H97Zm0-4.48h3.63V79H97Z"/><path class="cls-1" d="M114.05,85.63a6.42,6.42,0,0,1-.07,1h-8a2.08,2.08,0,0,0,2.19,1.87,2.13,2.13,0,0,0,1.93-1h3.68a5.88,5.88,0,0,1-11.44-1.74,5.84,5.84,0,0,1,11.67-.09Zm-8-1.07h4.34a2.16,2.16,0,0,0-2.21-1.65A2.08,2.08,0,0,0,106.08,84.56Z"/><path class="cls-1" d="M126.34,84.55v6.54h-3.69v-6c0-1.25-.47-1.87-1.4-1.87-1.16,0-1.82.81-1.82,2.17v5.73h-3.69V80.37h2.59l.51,1.1a4.45,4.45,0,0,1,3.37-1.42C124.7,80.05,126.34,81.82,126.34,84.55Z"/><path class="cls-1" d="M135.7,87.85v3.24h-2.54a3.53,3.53,0,0,1-3.81-3.83V83.21h-2v-.86l4.8-5.12H133v3.14h2.69v2.84H133v3.41a1.14,1.14,0,0,0,1.25,1.23Z"/><path class="cls-1" d="M136.71,85.73a6,6,0,1,1,6,5.71A5.65,5.65,0,0,1,136.71,85.73Zm8.32,0a2.31,2.31,0,1,0-2.31,2.39A2.26,2.26,0,0,0,145,85.73Z"/><path class="cls-1" d="M166.08,76.5V91.09h-2.74l-.35-.8a4.91,4.91,0,0,1-3.23,1.16,5.72,5.72,0,0,1,0-11.43,5,5,0,0,1,2.67.74V76.5Zm-3.42,9.23a2.4,2.4,0,1,0-2.41,2.45A2.37,2.37,0,0,0,162.66,85.73Z"/><path class="cls-1" d="M179.45,85.63a6.45,6.45,0,0,1-.08,1h-8a2.08,2.08,0,0,0,2.19,1.87,2.16,2.16,0,0,0,1.94-1h3.67a5.87,5.87,0,0,1-11.43-1.74,5.84,5.84,0,0,1,11.67-.09Zm-8-1.07h4.33a2.16,2.16,0,0,0-2.21-1.65A2.06,2.06,0,0,0,171.48,84.56Z"/><path class="cls-1" d="M38.58,109.64a7.76,7.76,0,0,1-8.07,7.9H27.25v6h-6V101.77h9.28A7.73,7.73,0,0,1,38.58,109.64Zm-6.17,0A2.5,2.5,0,0,0,29.79,107H27.25v5.29h2.54A2.51,2.51,0,0,0,32.41,109.65Z"/><path class="cls-1" d="M58.83,106.73v16.81H54.36l-.5-1.19a7.92,7.92,0,0,1-5.07,1.76,8.95,8.95,0,0,1,0-17.89A8,8,0,0,1,53.93,108l.59-1.3Zm-5.5,8.42A3.77,3.77,0,1,0,49.56,119,3.7,3.7,0,0,0,53.33,115.15Z"/><path class="cls-1" d="M70.81,124.11c-5.39,0-9.28-3.78-9.28-9s3.87-8.91,9.3-8.91c4.72,0,8.27,3,8.9,7.45H74.09a3.42,3.42,0,0,0-3.28-2.26,3.48,3.48,0,0,0-3.48,3.74,3.51,3.51,0,0,0,3.48,3.77,3.37,3.37,0,0,0,3.29-2.45h5.69a8.71,8.71,0,0,1-9,7.64Z"/><path class="cls-1" d="M82.3,106.75h5.8v16.81H82.3Zm0-7h5.7v4.91h-5.7Z"/><path class="cls-1" d="M109.06,115a10.08,10.08,0,0,1-.12,1.54H96.46a3.27,3.27,0,0,0,3.43,2.92,3.36,3.36,0,0,0,3-1.57h5.76a9.15,9.15,0,1,1-8.8-11.68c5.42,0,9.17,3.86,9.17,8.79Zm-12.5-1.67h6.8a3.38,3.38,0,0,0-3.47-2.59A3.26,3.26,0,0,0,96.56,113.32Z"/><path class="cls-1" d="M128.32,113.31v10.25h-5.79v-9.45c0-2-.73-2.93-2.19-2.93-1.8,0-2.84,1.26-2.84,3.4v9h-5.79V106.75h4.06l.8,1.73a7,7,0,0,1,5.29-2.23C125.76,106.25,128.32,109,128.32,113.31Z"/><path class="cls-1" d="M143,118.49v5.07h-4c-3.72,0-6-2.28-6-6v-6.34H130v-1.36l7.53-8h1.19v4.92h4.23v4.46h-4.08v5.35a1.79,1.79,0,0,0,1.95,1.93Z"/><path class="cls-1" d="M162.89,115a11.54,11.54,0,0,1-.12,1.54H150.28a3.27,3.27,0,0,0,3.44,2.92,3.39,3.39,0,0,0,3-1.57h5.76a9.21,9.21,0,0,1-17.93-2.74,8.76,8.76,0,0,1,9.13-8.94c5.42,0,9.17,3.86,9.17,8.79Zm-12.5-1.67h6.79a3.37,3.37,0,0,0-3.46-2.59A3.26,3.26,0,0,0,150.39,113.32Z"/><path class="cls-1" d="M172,124.11c-4.59,0-7.37-2.42-7.42-6.06h5.57a1.73,1.73,0,0,0,2,1.79c.85,0,1.65-.43,1.65-1.3s-1.27-1.25-2.88-1.51c-2.61-.43-6.07-1.21-6.07-5.29,0-3.37,2.88-5.54,7.18-5.54s7.06,2.27,7.12,5.68H173.7c0-1.07-.72-1.57-1.77-1.57s-1.55.46-1.55,1.24c0,1,1.28,1.17,2.88,1.46,2.66.47,6.19,1,6.19,5.29,0,3.51-3,5.81-7.43,5.81Z"/></svg>