<svg id="Capa_1" data-name="Capa 1" xmlns="http://www.w3.org/2000/svg" viewBox="0 0 200 200"><defs><style>.cls-1{fill:#2391c0;}</style></defs><path class="cls-1" d="M21.85,81.1a6,6,0,0,1-6.28,6.15H13v4.69H8.34V75h7.23A6,6,0,0,1,21.85,81.1Zm-4.8,0a2,2,0,0,0-2-2.06H13v4.12h2A2,2,0,0,0,17.05,81.11Z"/><path class="cls-1" d="M34.76,87.65v4.29H24V75h4.73V87.65Z"/><path class="cls-1" d="M47.18,89.18h-6l-.94,2.76h-5l6.66-17h4.57l6.82,17H48.12Zm-3-8.92-1.86,5.26H46Z"/><path class="cls-1" d="M70.05,75v17H66.18l-6.74-9.21v9.21H54.91V75H59l6.52,8.9V75Z"/><path class="cls-1" d="M73.34,75h4.74v17H73.34Z"/><path class="cls-1" d="M86.09,79.2v2.7h5.45V86H86.09v6H81.37V75h10.8V79.2Z"/><path class="cls-1" d="M94.66,75H99.4v17H94.66Z"/><path class="cls-1" d="M101.81,83.47a8.75,8.75,0,0,1,9-8.93,8.43,8.43,0,0,1,8.58,7.24h-4.74a4,4,0,0,0-3.83-2.87,4.56,4.56,0,0,0,0,9.08,3.91,3.91,0,0,0,3.84-3.12h4.78a8.48,8.48,0,0,1-8.63,7.5A8.75,8.75,0,0,1,101.81,83.47Z"/><path class="cls-1" d="M131.34,89.18h-6l-.94,2.76h-5l6.67-17h4.56l6.82,17h-5.15Zm-3-8.92-1.86,5.26h3.73Z"/><path class="cls-1" d="M154.7,83.44c0,5-3.64,8.5-8.76,8.5h-6.87V75h6.87C151.07,75,154.7,78.48,154.7,83.44Zm-4.8,0a4,4,0,0,0-4.18-4.19h-1.95v8.4h1.95A4,4,0,0,0,149.9,83.44Z"/><path class="cls-1" d="M156.25,83.45c0-5.18,3.89-8.91,9.35-8.91s9.32,3.71,9.32,8.91-3.88,8.92-9.32,8.92S156.25,88.64,156.25,83.45Zm13.8,0A4.47,4.47,0,1,0,165.6,88,4.35,4.35,0,0,0,170.05,83.45Z"/><path class="cls-1" d="M183.69,86.74H182v5.2h-4.67V75h7.35c3.66,0,6.31,2.46,6.31,6a5.44,5.44,0,0,1-2.69,4.79l3.37,6.18h-5.22ZM182,82.81h2.14a1.86,1.86,0,1,0,0-3.69H182Z"/><path class="cls-1" d="M29.76,113.22c0,6.79-5,11.65-12,11.65H8.34V101.61h9.42C24.8,101.61,29.76,106.43,29.76,113.22Zm-6.57,0a5.42,5.42,0,0,0-5.74-5.74H14.78V119h2.67A5.45,5.45,0,0,0,23.19,113.22Z"/><path class="cls-1" d="M48.27,119.31v5.56H33.11V101.61H48v5.54h-8.5v3.43h7.64v5.25H39.49v3.48Z"/><path class="cls-1" d="M80.37,112.44c0,7.61-5,13-12.25,13s-12.39-5.12-12.39-12.2A11.88,11.88,0,0,1,68.06,101c6.1,0,11.08,3.82,12.07,9.23H73.41A5.63,5.63,0,0,0,68.12,107c-3.49,0-5.83,2.52-5.83,6.23s2.3,6.2,5.83,6.2c2.44,0,4.54-1.18,5.27-3H67.61v-4Z"/><path class="cls-1" d="M96.67,121.1H88.42l-1.29,3.77H80.27l9.13-23.26h6.27L105,124.87H98Zm-4.14-12.23L90,116.08H95.1Z"/><path class="cls-1" d="M105.16,117.36h6.61a2.47,2.47,0,0,0,2.74,2.47c1.35,0,2.63-.71,2.63-2,0-1.46-1.81-1.88-4-2.42-3.36-.84-7.65-1.87-7.65-7.16,0-4.58,3.37-7.21,8.85-7.21s8.77,2.87,8.77,7.6h-6.42a2.15,2.15,0,0,0-2.43-2.16c-1.14,0-2.23.49-2.23,1.58,0,1.32,1.75,1.76,3.94,2.31,3.42.88,7.9,2,7.9,7.33,0,5.08-3.91,7.72-9.31,7.72C108.84,125.44,105.16,122.43,105.16,117.36Z"/><path class="cls-1" d="M144.18,107.38h-6.32v17.49h-6.43V107.38h-6.32v-5.77h19.07Z"/><path class="cls-1" d="M145.24,113.24c0-7.11,5.33-12.21,12.81-12.21s12.77,5.09,12.77,12.21-5.31,12.22-12.77,12.22S145.24,120.35,145.24,113.24Zm12.81,6.26a6.26,6.26,0,1,0-6.14-6.26,6,6,0,0,0,6.14,6.26Z"/><path class="cls-1" d="M173,117.36h6.61a2.47,2.47,0,0,0,2.75,2.47c1.34,0,2.62-.71,2.62-2,0-1.46-1.81-1.88-4-2.42-3.36-.84-7.65-1.87-7.65-7.16,0-4.58,3.37-7.21,8.85-7.21s8.77,2.87,8.77,7.6h-6.42a2.15,2.15,0,0,0-2.43-2.16c-1.14,0-2.23.49-2.23,1.58,0,1.32,1.75,1.76,3.94,2.31,3.42.88,7.9,2,7.9,7.33,0,5.08-3.9,7.72-9.31,7.72C176.66,125.44,173,122.43,173,117.36Z"/></svg>