<svg id="Capa_1" data-name="Capa 1" xmlns="http://www.w3.org/2000/svg" viewBox="0 0 200 200"><defs><style>.cls-1{fill:#feba0b;}</style></defs><path class="cls-1" d="M16.73,97.26a10.42,10.42,0,1,1,0-20.84,9.85,9.85,0,0,1,10,8.46H21.22a4.69,4.69,0,0,0-4.48-3.36c-2.81,0-4.87,2.26-4.87,5.33s2.06,5.29,4.87,5.29a4.58,4.58,0,0,0,4.49-3.64h5.58a9.9,9.9,0,0,1-10.08,8.76Z"/><path class="cls-1" d="M28.27,89.1c0-4.74,3.59-8.15,8.58-8.15s8.58,3.41,8.58,8.15-3.61,8.16-8.58,8.16S28.27,93.83,28.27,89.1Zm11.88,0a3.3,3.3,0,1,0-3.3,3.42A3.22,3.22,0,0,0,40.15,89.1Z"/><path class="cls-1" d="M58,92.14v4.61H54.33c-3.39,0-5.44-2.06-5.44-5.46V85.51h-2.8V84.28L52.94,77H54v4.47h3.85v4.06H54.16v4.87a1.62,1.62,0,0,0,1.77,1.76Z"/><path class="cls-1" d="M60.41,81.45h5.27v15.3H60.41Zm0-6.38h5.19v4.47H60.45Z"/><path class="cls-1" d="M81.12,92.07v4.68H67.91V96l5.86-9.86H68.43V81.45H81.06v.86l-5.77,9.76Z"/><path class="cls-1" d="M99.67,81.44v15.3H95.59l-.45-1.08a7.26,7.26,0,0,1-4.61,1.6,8.14,8.14,0,0,1,0-16.28,7.25,7.25,0,0,1,4.67,1.64l.54-1.18Zm-5,7.66a3.43,3.43,0,1,0-3.43,3.49A3.37,3.37,0,0,0,94.66,89.1Z"/><path class="cls-1" d="M119.14,75.93V96.75h-3.9l-.49-1.13a7.09,7.09,0,0,1-4.62,1.65,8.16,8.16,0,0,1,0-16.32,7.11,7.11,0,0,1,3.8,1.06V75.93ZM114.26,89.1a3.43,3.43,0,1,0-3.42,3.5A3.38,3.38,0,0,0,114.26,89.1Z"/><path class="cls-1" d="M121.55,89.1c0-4.74,3.59-8.15,8.58-8.15s8.58,3.41,8.58,8.15-3.61,8.16-8.58,8.16S121.55,93.83,121.55,89.1Zm11.88,0a3.3,3.3,0,1,0-3.3,3.42A3.22,3.22,0,0,0,133.43,89.1Z"/><path class="cls-1" d="M151.1,81.38V86.2h-2c-1.87,0-2.65.82-2.65,2.77v7.78h-5.27V81.45h3.53l.82,1.7a5.12,5.12,0,0,1,4.22-1.77Z"/><path class="cls-1" d="M174.75,75.93V96.75h-3.9l-.5-1.13a7,7,0,0,1-4.61,1.65,8.16,8.16,0,0,1,0-16.32,7.16,7.16,0,0,1,3.8,1.06V75.93ZM169.87,89.1a3.43,3.43,0,1,0-3.43,3.5A3.38,3.38,0,0,0,169.87,89.1Z"/><path class="cls-1" d="M193.82,89a9.41,9.41,0,0,1-.11,1.39H182.35A3,3,0,0,0,185.47,93a3.08,3.08,0,0,0,2.77-1.44h5.24a8.39,8.39,0,0,1-16.32-2.49A8,8,0,0,1,185.47,81c4.93,0,8.35,3.52,8.35,8Zm-11.38-1.52h6.19a3.09,3.09,0,0,0-3.16-2.36A3,3,0,0,0,182.44,87.44Z"/><path class="cls-1" d="M15.38,120.83a8.51,8.51,0,1,1,0-17,8,8,0,0,1,8.19,6.91H19.05A3.84,3.84,0,0,0,15.39,108a4.35,4.35,0,0,0,0,8.67,3.71,3.71,0,0,0,3.66-3h4.57a8.09,8.09,0,0,1-8.24,7.15Z"/><path class="cls-1" d="M33.68,107.86v3.94H32c-1.53,0-2.17.67-2.17,2.26v6.36h-4.3v-12.5h2.88l.68,1.39a4.16,4.16,0,0,1,3.44-1.45Z"/><path class="cls-1" d="M35.3,107.92h4.31v12.5H35.3Zm0-5.22h4.24v3.66H35.34Z"/><path class="cls-1" d="M56.17,114.17a6.37,6.37,0,0,1-6.55,6.67,5.78,5.78,0,0,1-3-.83v4.92H42.32v-17h2.92l.54,1a5.84,5.84,0,0,1,3.84-1.4A6.36,6.36,0,0,1,56.17,114.17Zm-4.33,0A2.8,2.8,0,1,0,49,117,2.75,2.75,0,0,0,51.84,114.17Z"/><path class="cls-1" d="M66.39,116.65v3.77h-3A4.11,4.11,0,0,1,59,116v-4.71H56.69v-1l5.6-6h.89v3.65h3.14v3.32h-3v4a1.33,1.33,0,0,0,1.45,1.44Z"/><path class="cls-1" d="M67.55,114.17c0-3.87,2.93-6.66,7-6.66s7,2.79,7,6.66-2.95,6.66-7,6.66S67.55,118,67.55,114.17Zm9.71,0a2.7,2.7,0,1,0-2.7,2.79A2.64,2.64,0,0,0,77.26,114.17Z"/><path class="cls-1" d="M102.72,112.58v7.84h-4.3v-7.31c0-1.3-.48-1.93-1.4-1.93-1.18,0-1.78.81-1.78,2.39v6.85H91v-7.31c0-1.26-.47-1.93-1.38-1.93-1.16,0-1.8.83-1.8,2.39v6.85H83.55v-12.5h3l.61,1.34a4.85,4.85,0,0,1,3.66-1.71,4.22,4.22,0,0,1,3.58,1.84,4.88,4.88,0,0,1,3.84-1.84C101,107.55,102.72,109.64,102.72,112.58Z"/><path class="cls-1" d="M104.55,114.17c0-3.87,2.94-6.66,7-6.66s7,2.79,7,6.66-2.95,6.66-7,6.66S104.55,118,104.55,114.17Zm9.71,0a2.7,2.7,0,1,0-2.7,2.79A2.64,2.64,0,0,0,114.26,114.17Z"/><path class="cls-1" d="M132.91,112.8v7.62H128.6v-7c0-1.45-.54-2.17-1.63-2.17-1.34,0-2.11.93-2.11,2.53v6.67h-4.31v-12.5h3l.59,1.29a5.21,5.21,0,0,1,3.94-1.66C131,107.55,132.91,109.61,132.91,112.8Z"/><path class="cls-1" d="M148.36,114.05a8.75,8.75,0,0,1-.09,1.14H139a2.42,2.42,0,0,0,2.55,2.18,2.49,2.49,0,0,0,2.26-1.18h4.28a6.8,6.8,0,1,1-6.54-8.68,6.49,6.49,0,0,1,6.82,6.54Zm-9.3-1.24h5.06a2.51,2.51,0,0,0-2.58-1.92A2.42,2.42,0,0,0,139.06,112.81Z"/><path class="cls-1" d="M163.51,103.41v17h-3.18l-.41-.93a5.76,5.76,0,0,1-3.77,1.35,6.67,6.67,0,0,1,0-13.33,5.82,5.82,0,0,1,3.11.87v-5Zm-4,10.76a2.8,2.8,0,1,0-2.8,2.86A2.76,2.76,0,0,0,159.53,114.17Z"/><path class="cls-1" d="M179.51,107.91v12.5h-3.32l-.37-.89a5.93,5.93,0,0,1-3.77,1.31,6.65,6.65,0,0,1,0-13.3,5.91,5.91,0,0,1,3.81,1.34l.45-1Zm-4.09,6.26a2.8,2.8,0,1,0-2.8,2.85A2.74,2.74,0,0,0,175.42,114.17Z"/><path class="cls-1" d="M181.53,116.32h4.14a1.29,1.29,0,0,0,1.46,1.34c.62,0,1.22-.32,1.22-1s-.94-.93-2.14-1.13c-1.94-.31-4.51-.89-4.51-3.93,0-2.5,2.13-4.12,5.33-4.12s5.25,1.69,5.3,4.23h-4c0-.8-.54-1.17-1.32-1.17s-1.15.34-1.15.92.95.88,2.14,1.09c2,.35,4.6.76,4.6,3.93,0,2.61-2.2,4.32-5.53,4.32S181.57,119,181.53,116.32Z"/></svg>