<svg id="Capa_1" data-name="Capa 1" xmlns="http://www.w3.org/2000/svg" viewBox="0 0 200 200"><defs><style>.cls-1{fill:#feba0b;}</style></defs><path class="cls-1" d="M16.728,97.256a10.419,10.419,0,1,1,0-20.836,9.846,9.846,0,0,1,10.029,8.459H21.221a4.688,4.688,0,0,0-4.481-3.354c-2.809,0-4.868,2.258-4.868,5.329s2.059,5.284,4.868,5.284A4.562,4.562,0,0,0,21.226,88.5h5.588a9.9,9.9,0,0,1-10.086,8.755Z"/><path class="cls-1" d="M28.274,89.1c0-4.743,3.59-8.151,8.578-8.151,4.972,0,8.578,3.408,8.578,8.151,0,4.726-3.606,8.151-8.578,8.151C31.864,97.255,28.274,93.83,28.274,89.1Zm11.877,0a3.3,3.3,0,1,0-3.3,3.417A3.227,3.227,0,0,0,40.151,89.1Z"/><path class="cls-1" d="M57.952,92.138v4.616H54.327c-3.384,0-5.44-2.069-5.44-5.468V85.512h-2.8V84.281l6.855-7.3h1.083v4.473h3.843v4.058h-3.71v4.87a1.623,1.623,0,0,0,1.773,1.756Z"/><path class="cls-1" d="M60.41,81.454h5.27v15.3H60.41Zm.04-6.387h5.19v4.472H60.45Z"/><path class="cls-1" d="M81.124,92.068v4.686H67.913v-.782l5.861-9.866H68.433V81.454H81.064v.86l-5.778,9.754Z"/><path class="cls-1" d="M99.668,81.438v15.3H95.594l-.452-1.081a7.249,7.249,0,0,1-4.616,1.6,8.14,8.14,0,0,1,0-16.279A7.259,7.259,0,0,1,95.2,82.621l.539-1.184ZM94.655,89.1a3.426,3.426,0,1,0-3.424,3.489A3.359,3.359,0,0,0,94.655,89.1Z"/><path class="cls-1" d="M119.144,75.929V96.754h-3.9l-.5-1.137a7.068,7.068,0,0,1-4.614,1.654,8.16,8.16,0,0,1,0-16.319,7.134,7.134,0,0,1,3.8,1.063V75.929ZM114.263,89.1a3.426,3.426,0,1,0-3.425,3.5A3.374,3.374,0,0,0,114.263,89.1Z"/><path class="cls-1" d="M121.554,89.1c0-4.743,3.59-8.151,8.578-8.151,4.973,0,8.578,3.408,8.578,8.151,0,4.726-3.605,8.151-8.578,8.151C125.144,97.255,121.554,93.83,121.554,89.1Zm11.878,0a3.3,3.3,0,1,0-3.3,3.417A3.227,3.227,0,0,0,133.432,89.1Z"/><path class="cls-1" d="M151.1,81.381V86.2h-2.047c-1.866,0-2.647.818-2.647,2.77v7.78h-5.27v-15.3h3.53l.823,1.7a5.108,5.108,0,0,1,4.214-1.771Z"/><path class="cls-1" d="M174.749,75.929V96.754h-3.9l-.5-1.137a7.068,7.068,0,0,1-4.614,1.654,8.16,8.16,0,0,1,0-16.319,7.134,7.134,0,0,1,3.8,1.063V75.929ZM169.868,89.1a3.426,3.426,0,1,0-3.425,3.5A3.374,3.374,0,0,0,169.868,89.1Z"/><path class="cls-1" d="M193.817,88.959a9.77,9.77,0,0,1-.108,1.395H182.347a2.973,2.973,0,0,0,3.124,2.663,3.07,3.07,0,0,0,2.766-1.435h5.245a8.324,8.324,0,1,1-8.011-10.629c4.931,0,8.346,3.518,8.346,8.006ZM182.44,87.436h6.185a3.074,3.074,0,0,0-3.154-2.354A2.963,2.963,0,0,0,182.44,87.436Z"/><path class="cls-1" d="M15.38,120.83a8.511,8.511,0,1,1,0-17.021,8.044,8.044,0,0,1,8.193,6.91H19.05a3.831,3.831,0,0,0-3.661-2.74,4.351,4.351,0,0,0,0,8.67,3.726,3.726,0,0,0,3.665-2.971h4.565a8.09,8.09,0,0,1-8.239,7.151Z"/><path class="cls-1" d="M33.678,107.862V111.8H32.007c-1.524,0-2.163.669-2.163,2.263v6.356h-4.3v-12.5h2.884l.671,1.387a4.176,4.176,0,0,1,3.443-1.446Z"/><path class="cls-1" d="M35.305,107.921H39.61v12.5h-4.3Zm.033-5.217h4.239v3.653H35.338Z"/><path class="cls-1" d="M56.173,114.17a6.368,6.368,0,0,1-6.554,6.673,5.843,5.843,0,0,1-3.047-.831v4.921H42.317V107.921h2.927l.54.993a5.785,5.785,0,0,1,3.835-1.4A6.357,6.357,0,0,1,56.173,114.17Zm-4.332,0a2.8,2.8,0,1,0-2.8,2.86A2.75,2.75,0,0,0,51.841,114.17Z"/><path class="cls-1" d="M66.388,116.649v3.771H63.426a4.112,4.112,0,0,1-4.444-4.467v-4.717H56.694V110.23l5.6-5.963h.884v3.654h3.141v3.315H63.287v3.978a1.326,1.326,0,0,0,1.448,1.435Z"/><path class="cls-1" d="M67.552,114.17c0-3.874,2.933-6.658,7.007-6.658s7.008,2.784,7.008,6.658-2.945,6.659-7.008,6.659S67.552,118.031,67.552,114.17Zm9.7,0a2.7,2.7,0,1,0-2.7,2.791A2.637,2.637,0,0,0,77.255,114.171Z"/><path class="cls-1" d="M102.725,112.581v7.839h-4.3v-7.307c0-1.3-.48-1.935-1.395-1.935-1.183,0-1.79.815-1.79,2.389v6.853H91.042v-7.307c0-1.266-.476-1.935-1.377-1.935-1.168,0-1.807.834-1.807,2.389v6.853H83.553v-12.5h3.026l.614,1.343a4.818,4.818,0,0,1,3.653-1.713,4.206,4.206,0,0,1,3.584,1.841,4.874,4.874,0,0,1,3.838-1.841C100.946,107.551,102.725,109.637,102.725,112.581Z"/><path class="cls-1" d="M104.553,114.17c0-3.874,2.932-6.658,7.007-6.658s7.008,2.784,7.008,6.658-2.946,6.659-7.008,6.659S104.553,118.031,104.553,114.17Zm9.7,0a2.7,2.7,0,1,0-2.7,2.791A2.637,2.637,0,0,0,114.256,114.171Z"/><path class="cls-1" d="M132.908,112.8v7.621h-4.3v-7.027c0-1.454-.546-2.176-1.629-2.176-1.343,0-2.115.938-2.115,2.528v6.675h-4.3v-12.5h3.02l.591,1.289a5.2,5.2,0,0,1,3.935-1.659C131,107.551,132.908,109.614,132.908,112.8Z"/><path class="cls-1" d="M148.358,114.052a7.927,7.927,0,0,1-.089,1.14h-9.281a2.428,2.428,0,0,0,2.552,2.175,2.509,2.509,0,0,0,2.26-1.172h4.284a6.8,6.8,0,1,1-6.544-8.683,6.491,6.491,0,0,1,6.818,6.54Zm-9.294-1.244h5.053a2.512,2.512,0,0,0-2.577-1.923A2.421,2.421,0,0,0,139.064,112.808Z"/><path class="cls-1" d="M163.513,103.408V120.42h-3.185l-.407-.929a5.775,5.775,0,0,1-3.769,1.352,6.667,6.667,0,0,1,0-13.332,5.841,5.841,0,0,1,3.105.868v-4.971Zm-3.987,10.763a2.8,2.8,0,1,0-2.8,2.859A2.757,2.757,0,0,0,159.526,114.171Z"/><path class="cls-1" d="M179.514,107.908v12.5h-3.328l-.369-.883a5.926,5.926,0,0,1-3.771,1.306,6.65,6.65,0,0,1,0-13.3,5.934,5.934,0,0,1,3.819,1.343l.44-.966Zm-4.095,6.259a2.8,2.8,0,1,0-2.8,2.851A2.744,2.744,0,0,0,175.419,114.167Z"/><path class="cls-1" d="M181.529,116.322h4.143a1.289,1.289,0,0,0,1.453,1.335c.63,0,1.227-.322,1.227-.967,0-.721-.946-.927-2.147-1.125-1.939-.314-4.508-.9-4.508-3.931,0-2.5,2.135-4.123,5.338-4.123,3.183,0,5.246,1.693,5.3,4.226H188.3c0-.8-.536-1.169-1.316-1.169-.69,0-1.153.342-1.153.921,0,.712.955.877,2.143,1.089,1.974.35,4.6.76,4.6,3.93,0,2.612-2.2,4.321-5.527,4.321C183.638,120.829,181.568,119.03,181.529,116.322Z"/></svg>