<svg id="Capa_1" data-name="Capa 1" xmlns="http://www.w3.org/2000/svg" viewBox="0 0 200 200"><defs><style>.cls-1{fill:#2391c0;}</style></defs><path class="cls-1" d="M24.793,102.915v5.018H11.1v-21H24.539v5H16.861v3.092h6.9v4.745h-6.9v3.143Z"/><path class="cls-1" d="M35.579,108.464c-5.195,0-8.945-3.64-8.945-8.653s3.733-8.583,8.962-8.583a8.241,8.241,0,0,1,8.578,7.18H38.738a3.288,3.288,0,0,0-3.159-2.18,3.348,3.348,0,0,0-3.357,3.6,3.387,3.387,0,0,0,3.357,3.635,3.266,3.266,0,0,0,3.172-2.363h5.482a8.4,8.4,0,0,1-8.654,7.363Z"/><path class="cls-1" d="M45.7,99.834c0-5.022,3.8-8.631,9.083-8.631,5.264,0,9.082,3.609,9.082,8.631,0,5-3.818,8.63-9.082,8.63C49.5,108.464,45.7,104.838,45.7,99.834Zm12.576,0a3.5,3.5,0,1,0-3.493,3.618A3.416,3.416,0,0,0,58.273,99.834Z"/><path class="cls-1" d="M91.287,97.773v10.16h-5.58v-9.47c0-1.692-.623-2.508-1.809-2.508-1.533,0-2.319,1.056-2.319,3.1v8.882H76.144v-9.47c0-1.641-.618-2.508-1.786-2.508-1.513,0-2.342,1.081-2.342,3.1v8.882h-5.58v-16.2H70.36l.794,1.74a6.249,6.249,0,0,1,4.735-2.219,5.455,5.455,0,0,1,4.647,2.385,6.317,6.317,0,0,1,4.974-2.385C88.98,91.255,91.287,93.958,91.287,97.773Z"/><path class="cls-1" d="M119.452,97.773v10.16h-5.58v-9.47c0-1.692-.623-2.508-1.809-2.508-1.533,0-2.319,1.056-2.319,3.1v8.882h-5.435v-9.47c0-1.641-.618-2.508-1.786-2.508-1.513,0-2.342,1.081-2.342,3.1v8.882H94.6v-16.2h3.924l.794,1.74a6.249,6.249,0,0,1,4.735-2.219A5.455,5.455,0,0,1,108.7,93.64a6.317,6.317,0,0,1,4.974-2.385C117.145,91.255,119.452,93.958,119.452,97.773Z"/><path class="cls-1" d="M139.459,99.681a10.209,10.209,0,0,1-.116,1.477H127.315a3.146,3.146,0,0,0,3.307,2.819,3.252,3.252,0,0,0,2.928-1.519H139.1A8.814,8.814,0,1,1,130.622,91.2c5.221,0,8.837,3.726,8.837,8.477Zm-12.046-1.613h6.549a3.255,3.255,0,0,0-3.34-2.492A3.136,3.136,0,0,0,127.413,98.068Z"/><path class="cls-1" d="M152.541,91.657v5.106h-2.166c-1.976,0-2.8.866-2.8,2.933v8.237h-5.58v-16.2h3.738l.871,1.8a5.405,5.405,0,0,1,4.462-1.875Z"/><path class="cls-1" d="M162.4,108.464c-5.194,0-8.944-3.64-8.944-8.653s3.732-8.583,8.962-8.583a8.239,8.239,0,0,1,8.577,7.18h-5.436a3.287,3.287,0,0,0-3.159-2.18,3.347,3.347,0,0,0-3.356,3.6,3.387,3.387,0,0,0,3.356,3.635,3.266,3.266,0,0,0,3.172-2.363h5.483a8.4,8.4,0,0,1-8.655,7.363Z"/><path class="cls-1" d="M190.149,99.681a10.349,10.349,0,0,1-.115,1.477H178.006a3.145,3.145,0,0,0,3.306,2.819,3.252,3.252,0,0,0,2.929-1.519h5.553A8.814,8.814,0,1,1,181.312,91.2c5.222,0,8.837,3.726,8.837,8.477ZM178.1,98.068h6.549a3.254,3.254,0,0,0-3.34-2.492A3.136,3.136,0,0,0,178.1,98.068Z"/></svg>