<svg id="Capa_1" data-name="Capa 1" xmlns="http://www.w3.org/2000/svg" viewBox="0 0 200 200"><defs><style>.cls-1{fill:#fff;}</style></defs><path class="cls-1" d="M7.3,84.37h4.61a1.73,1.73,0,0,0,1.92,1.72c.93,0,1.82-.5,1.82-1.39s-1.26-1.31-2.8-1.68c-2.34-.58-5.34-1.3-5.34-5,0-3.2,2.35-5,6.17-5s6.12,2,6.12,5.3H15.32a1.49,1.49,0,0,0-1.69-1.51c-.8,0-1.56.35-1.56,1.1,0,.92,1.22,1.23,2.75,1.61,2.38.62,5.5,1.42,5.5,5.12,0,3.54-2.72,5.38-6.48,5.38C9.87,90,7.3,87.9,7.3,84.37Z"/><path class="cls-1" d="M35.35,83.23a8.89,8.89,0,0,1-.09,1.14H26a2.42,2.42,0,0,0,2.55,2.18,2.52,2.52,0,0,0,2.27-1.18h4.28A6.58,6.58,0,0,1,28.52,90a6.67,6.67,0,1,1,0-13.33,6.5,6.5,0,0,1,6.83,6.55ZM26.05,82H31.1a2.5,2.5,0,0,0-2.58-1.92A2.42,2.42,0,0,0,26.05,82Z"/><path class="cls-1" d="M50.25,77.09V88.21c0,3.93-2.57,6.37-6.7,6.37-3.55,0-6-1.79-6.61-4.76H41.1a2.46,2.46,0,0,0,2.41,1.29,2.41,2.41,0,0,0,2.6-2.4v-.38A6.22,6.22,0,0,1,36.6,83a6.13,6.13,0,0,1,6.25-6.29,6.06,6.06,0,0,1,3.94,1.45l.55-1Zm-6.69,8.63A2.73,2.73,0,1,0,40.89,83a2.6,2.6,0,0,0,2.67,2.74Z"/><path class="cls-1" d="M52.82,84.23V77.09h4.31v7c0,1.32.71,2.1,1.86,2.1s1.85-.79,1.85-2.1v-7h4.31v7.14c0,3.5-2.46,5.78-6.16,5.78S52.82,87.73,52.82,84.23Z"/><path class="cls-1" d="M67.7,77.09H72V89.6H67.7Zm0-5.22H72v3.66H67.73Z"/><path class="cls-1" d="M93.91,81.76V89.6H89.6V82.29c0-1.31-.48-1.94-1.39-1.94-1.19,0-1.79.82-1.79,2.39V89.6h-4.2V82.29c0-1.27-.48-1.94-1.38-1.94-1.17,0-1.81.84-1.81,2.39V89.6H74.72V77.09h3l.62,1.35A4.79,4.79,0,0,1,82,76.72a4.21,4.21,0,0,1,3.59,1.85,4.86,4.86,0,0,1,3.84-1.85C92.13,76.72,93.91,78.81,93.91,81.76Z"/><path class="cls-1" d="M96.49,77.09h4.3V89.6h-4.3Zm0-5.22h4.24v3.66H96.52Z"/><path class="cls-1" d="M116.4,83.23a8.89,8.89,0,0,1-.09,1.14H107a2.42,2.42,0,0,0,2.55,2.18,2.52,2.52,0,0,0,2.27-1.18h4.28a6.8,6.8,0,1,1-6.55-8.69,6.5,6.5,0,0,1,6.83,6.55ZM107.1,82h5.05a2.5,2.5,0,0,0-2.58-1.92A2.42,2.42,0,0,0,107.1,82Z"/><path class="cls-1" d="M130.73,82V89.6h-4.31v-7c0-1.46-.55-2.18-1.63-2.18-1.34,0-2.12.94-2.12,2.53V89.6h-4.31V77.09h3l.59,1.29a5.19,5.19,0,0,1,3.94-1.66C128.82,76.72,130.73,78.79,130.73,82Z"/><path class="cls-1" d="M141.66,85.83V89.6h-3a4.11,4.11,0,0,1-4.44-4.47V80.41H132v-1l5.6-6h.89v3.65h3.14v3.32h-3v4A1.33,1.33,0,0,0,140,85.83Z"/><path class="cls-1" d="M142.83,83.35c0-3.88,2.93-6.67,7-6.67s7,2.79,7,6.67-3,6.66-7,6.66S142.83,87.21,142.83,83.35Zm9.71,0a2.7,2.7,0,1,0-2.7,2.79A2.64,2.64,0,0,0,152.54,83.35Z"/><path class="cls-1" d="M177.09,72.58v17h-3.18l-.41-.93A5.78,5.78,0,0,1,169.73,90a6.68,6.68,0,0,1,0-13.35,5.84,5.84,0,0,1,3.11.87v-5Zm-4,10.77a2.8,2.8,0,1,0-2.8,2.86A2.75,2.75,0,0,0,173.1,83.35Z"/><path class="cls-1" d="M192.7,83.23a8.89,8.89,0,0,1-.09,1.14h-9.29a2.42,2.42,0,0,0,2.55,2.18,2.49,2.49,0,0,0,2.26-1.18h4.29a6.8,6.8,0,1,1-6.55-8.69,6.51,6.51,0,0,1,6.83,6.55ZM183.39,82h5.06a2.51,2.51,0,0,0-2.58-1.92A2.43,2.43,0,0,0,183.39,82Z"/><path class="cls-1" d="M28.34,111.25a9,9,0,0,1-9.42,9.21H15.11v7h-7V102.06H18.92A9,9,0,0,1,28.34,111.25Zm-7.2,0a2.92,2.92,0,0,0-3.06-3.08h-3v6.17h3A2.93,2.93,0,0,0,21.14,111.26Z"/><path class="cls-1" d="M52,107.85v19.61H46.75l-.58-1.38a9.3,9.3,0,0,1-5.92,2c-6,0-10.28-4.38-10.28-10.47s4.28-10.4,10.28-10.4a9.28,9.28,0,0,1,6,2.11l.69-1.52Zm-6.43,9.82a4.39,4.39,0,1,0-4.39,4.48A4.31,4.31,0,0,0,45.54,117.67Z"/><path class="cls-1" d="M65.94,128.13c-6.29,0-10.83-4.41-10.83-10.48S59.63,107.26,66,107.26c5.51,0,9.64,3.47,10.38,8.69H69.77a4,4,0,0,0-3.83-2.64,4.39,4.39,0,0,0,0,8.76,3.94,3.94,0,0,0,3.84-2.86h6.64a10.17,10.17,0,0,1-10.48,8.92Z"/><path class="cls-1" d="M79.35,107.87h6.76v19.62H79.35Zm.06-8.19h6.65v5.74H79.41Z"/><path class="cls-1" d="M110.57,117.49a13.59,13.59,0,0,1-.13,1.79H95.87a3.81,3.81,0,0,0,4,3.41,4,4,0,0,0,3.54-1.83h6.72a10.75,10.75,0,0,1-20.92-3.2c0-6,4.5-10.43,10.66-10.43,6.32,0,10.69,4.51,10.69,10.26ZM96,115.54h7.93a3.94,3.94,0,0,0-4-3A3.8,3.8,0,0,0,96,115.54Z"/><path class="cls-1" d="M133.05,115.53v12h-6.76v-11c0-2.28-.86-3.42-2.56-3.42-2.1,0-3.31,1.48-3.31,4v10.48h-6.76V107.87h4.74l.93,2a8.18,8.18,0,0,1,6.17-2.6C130.06,107.29,133.05,110.53,133.05,115.53Z"/><path class="cls-1" d="M150.18,121.57v5.92h-4.65c-4.33,0-7-2.66-7-7v-7.39H135V111.5l8.79-9.36h1.39v5.73h4.92v5.21h-4.75v6.24a2.08,2.08,0,0,0,2.27,2.25Z"/><path class="cls-1" d="M173.37,117.49a12.1,12.1,0,0,1-.14,1.79H158.67a3.8,3.8,0,0,0,4,3.41,4,4,0,0,0,3.55-1.83h6.72a10.75,10.75,0,0,1-20.92-3.2c0-6,4.5-10.43,10.65-10.43,6.33,0,10.7,4.51,10.7,10.26Zm-14.58-1.95h7.93a4,4,0,0,0-4.05-3A3.8,3.8,0,0,0,158.79,115.54Z"/><path class="cls-1" d="M184,128.13c-5.35,0-8.6-2.83-8.66-7.08h6.5a2,2,0,0,0,2.28,2.1c1,0,1.93-.5,1.93-1.52s-1.49-1.45-3.37-1.76c-3-.5-7.08-1.41-7.08-6.17,0-3.93,3.35-6.47,8.38-6.47s8.23,2.66,8.31,6.63H186c0-1.25-.84-1.83-2.06-1.83s-1.81.53-1.81,1.44c0,1.12,1.5,1.38,3.36,1.71,3.1.55,7.22,1.19,7.22,6.17,0,4.1-3.46,6.78-8.67,6.78Z"/><path class="cls-1" d="M4.83,87.1H10.7a2.19,2.19,0,0,0,2.43,2.19c1.19,0,2.33-.63,2.33-1.76,0-1.3-1.61-1.67-3.57-2.15-3-.74-6.8-1.66-6.8-6.36,0-4.07,3-6.4,7.86-6.4s7.79,2.54,7.79,6.75H15a1.91,1.91,0,0,0-2.16-1.92c-1,0-2,.43-2,1.4,0,1.17,1.55,1.56,3.5,2.05,3,.78,7,1.8,7,6.52,0,4.51-3.46,6.85-8.26,6.85C8.09,94.27,4.83,91.6,4.83,87.1Z"/><path class="cls-1" d="M40.55,85.65a10.22,10.22,0,0,1-.11,1.45H28.61a3.09,3.09,0,0,0,3.25,2.77,3.21,3.21,0,0,0,2.88-1.49H40.2a8.38,8.38,0,0,1-8.34,5.91,8.49,8.49,0,1,1,0-17c5.14,0,8.69,3.66,8.69,8.34ZM28.7,84.06h6.45a3.2,3.2,0,0,0-3.29-2.45A3.09,3.09,0,0,0,28.7,84.06Z"/><path class="cls-1" d="M59.54,77.83V92c0,5-3.27,8.11-8.54,8.11-4.52,0-7.69-2.28-8.42-6.06h5.3A3.17,3.17,0,0,0,51,95.69a3.07,3.07,0,0,0,3.32-3.06v-.48a7.93,7.93,0,0,1-12.12-6.81,7.81,7.81,0,0,1,8-8,7.67,7.67,0,0,1,5,1.85l.69-1.34Zm-5.13,7.51A3.4,3.4,0,1,0,51,88.83,3.31,3.31,0,0,0,54.41,85.34Z"/><path class="cls-1" d="M62.82,86.93v-9.1H68.3v8.86c0,1.68.91,2.67,2.38,2.67s2.35-1,2.35-2.67V77.83h5.49v9.1c0,4.45-3.14,7.36-7.84,7.36S62.82,91.38,62.82,86.93Z"/><path class="cls-1" d="M81.77,77.83h5.49V93.77H81.77Zm0-6.65h5.41v4.65H81.81Z"/><path class="cls-1" d="M115.17,83.77v10h-5.49V84.45c0-1.66-.61-2.47-1.78-2.47-1.51,0-2.28,1-2.28,3v8.74h-5.35V84.45c0-1.61-.61-2.47-1.76-2.47-1.49,0-2.3,1.07-2.3,3v8.74H90.72V77.83h3.86l.78,1.71A6.14,6.14,0,0,1,100,77.36a5.35,5.35,0,0,1,4.57,2.35,6.18,6.18,0,0,1,4.89-2.35C112.9,77.36,115.17,80,115.17,83.77Z"/><path class="cls-1" d="M118.45,77.83h5.49V93.77h-5.49Zm0-6.65h5.4v4.65h-5.4Z"/><path class="cls-1" d="M143.82,85.65a9,9,0,0,1-.12,1.45H131.87a3.09,3.09,0,0,0,3.25,2.77A3.18,3.18,0,0,0,138,88.38h5.47a8.74,8.74,0,0,1-17-2.59,8.31,8.31,0,0,1,8.65-8.48c5.14,0,8.7,3.66,8.7,8.34ZM132,84.06h6.44a3.2,3.2,0,0,0-3.29-2.45A3.08,3.08,0,0,0,132,84.06Z"/><path class="cls-1" d="M162.07,84.05v9.72h-5.48v-9c0-1.86-.7-2.78-2.08-2.78-1.71,0-2.7,1.2-2.7,3.23v8.51h-5.49V77.83h3.85l.76,1.64a6.6,6.6,0,0,1,5-2.11C159.65,77.36,162.07,80,162.07,84.05Z"/><path class="cls-1" d="M176,89v4.81h-3.78c-3.52,0-5.66-2.16-5.66-5.7v-6h-2.92V80.77l7.14-7.6h1.13v4.66h4v4.23h-3.86v5.07A1.69,1.69,0,0,0,173.89,89Z"/><path class="cls-1" d="M177.49,85.8c0-4.94,3.74-8.49,8.94-8.49s8.93,3.55,8.93,8.49-3.75,8.49-8.93,8.49S177.49,90.72,177.49,85.8Zm12.37,0a3.44,3.44,0,1,0-3.43,3.56A3.35,3.35,0,0,0,189.86,85.8Z"/><path class="cls-1" d="M21.85,107.28v21H17.91l-.5-1.15a7.14,7.14,0,0,1-4.66,1.67,8.24,8.24,0,0,1,0-16.47,7.28,7.28,0,0,1,3.84,1.07v-6.14Zm-4.93,13.3a3.46,3.46,0,1,0-3.46,3.53A3.41,3.41,0,0,0,16.92,120.58Z"/><path class="cls-1" d="M41.11,120.43a9.67,9.67,0,0,1-.11,1.41H29.53a3,3,0,0,0,3.15,2.69,3.11,3.11,0,0,0,2.8-1.45h5.29a8.13,8.13,0,0,1-8.09,5.73,8.23,8.23,0,1,1,0-16.46c5,0,8.43,3.55,8.43,8.08ZM29.63,118.9h6.24a3.11,3.11,0,0,0-3.19-2.38A3,3,0,0,0,29.63,118.9Z"/><path class="cls-1" d="M66,115.51a7.13,7.13,0,0,1-7.42,7.26h-3v5.53H50v-20h8.52A7.11,7.11,0,0,1,66,115.51Zm-5.67,0a2.3,2.3,0,0,0-2.41-2.43H55.54V118h2.33A2.3,2.3,0,0,0,60.28,115.53Z"/><path class="cls-1" d="M84.56,112.84v15.44H80.45L80,127.19a7.31,7.31,0,0,1-4.66,1.62,8.22,8.22,0,0,1,0-16.44A7.3,7.3,0,0,1,80.05,114l.54-1.2Zm-5.06,7.73A3.46,3.46,0,1,0,76,124.1,3.4,3.4,0,0,0,79.5,120.57Z"/><path class="cls-1" d="M95.56,128.81c-5,0-8.53-3.47-8.53-8.25s3.56-8.19,8.55-8.19a7.85,7.85,0,0,1,8.17,6.85H98.57a3.13,3.13,0,0,0-3-2.08,3.19,3.19,0,0,0-3.2,3.43,3.23,3.23,0,0,0,3.2,3.47,3.1,3.1,0,0,0,3-2.25h5.23a8,8,0,0,1-8.25,7Z"/><path class="cls-1" d="M106.12,112.86h5.32V128.3h-5.32Zm0-6.45h5.24v4.51h-5.24Z"/><path class="cls-1" d="M130.7,120.43a9.67,9.67,0,0,1-.11,1.41H119.13a3,3,0,0,0,3.15,2.69,3.11,3.11,0,0,0,2.79-1.45h5.29a8.4,8.4,0,1,1-8.08-10.73c5,0,8.42,3.55,8.42,8.08Zm-11.48-1.53h6.24a3.1,3.1,0,0,0-3.18-2.38A3,3,0,0,0,119.22,118.9Z"/><path class="cls-1" d="M148.39,118.88v9.42h-5.31v-8.68c0-1.8-.68-2.69-2-2.69-1.66,0-2.61,1.16-2.61,3.12v8.25h-5.32V112.86h3.73l.73,1.59a6.43,6.43,0,0,1,4.86-2C146,112.4,148.39,115,148.39,118.88Z"/><path class="cls-1" d="M161.89,123.64v4.66h-3.66c-3.42,0-5.49-2.09-5.49-5.52V117h-2.83v-1.24l6.92-7.37h1.09v4.52h3.88V117h-3.74v4.92a1.63,1.63,0,0,0,1.78,1.77Z"/><path class="cls-1" d="M180.15,120.43a9.67,9.67,0,0,1-.11,1.41H168.57a3,3,0,0,0,3.15,2.69,3.11,3.11,0,0,0,2.79-1.45h5.3a8.41,8.41,0,1,1-8.09-10.73c5,0,8.43,3.55,8.43,8.08Zm-11.49-1.53h6.25a3.11,3.11,0,0,0-3.19-2.38A3,3,0,0,0,168.66,118.9Z"/><path class="cls-1" d="M181.72,123.24h5.12a1.59,1.59,0,0,0,1.79,1.65c.78,0,1.52-.4,1.52-1.2s-1.17-1.14-2.65-1.39c-2.4-.39-5.57-1.11-5.57-4.85,0-3.1,2.64-5.1,6.59-5.1s6.48,2.09,6.54,5.22h-5c0-1-.66-1.44-1.62-1.44s-1.43.42-1.43,1.14c0,.87,1.18,1.08,2.65,1.34,2.44.43,5.68.94,5.68,4.86,0,3.22-2.72,5.34-6.83,5.34S181.77,126.58,181.72,123.24Z"/></svg>