<svg id="Capa_1" data-name="Capa 1" xmlns="http://www.w3.org/2000/svg" viewBox="0 0 200 200"><defs><style>.cls-1{fill:#fff;}</style></defs><path class="cls-1" d="M4.83,87.1H10.7a2.19,2.19,0,0,0,2.43,2.19c1.19,0,2.33-.63,2.33-1.76,0-1.3-1.61-1.67-3.57-2.15-3-.74-6.8-1.66-6.8-6.36,0-4.07,3-6.4,7.86-6.4s7.79,2.54,7.79,6.75H15a1.91,1.91,0,0,0-2.16-1.92c-1,0-2,.43-2,1.4,0,1.17,1.55,1.56,3.5,2.05,3,.78,7,1.8,7,6.52,0,4.51-3.46,6.85-8.26,6.85C8.09,94.27,4.83,91.6,4.83,87.1Z"/><path class="cls-1" d="M40.55,85.65a10.22,10.22,0,0,1-.11,1.45H28.61a3.09,3.09,0,0,0,3.25,2.77,3.21,3.21,0,0,0,2.88-1.49H40.2a8.38,8.38,0,0,1-8.34,5.91,8.49,8.49,0,1,1,0-17c5.14,0,8.69,3.66,8.69,8.34ZM28.7,84.06h6.45a3.2,3.2,0,0,0-3.29-2.45A3.09,3.09,0,0,0,28.7,84.06Z"/><path class="cls-1" d="M59.54,77.83V92c0,5-3.27,8.11-8.54,8.11-4.52,0-7.69-2.28-8.42-6.06h5.3A3.17,3.17,0,0,0,51,95.69a3.07,3.07,0,0,0,3.32-3.06v-.48a7.93,7.93,0,0,1-12.12-6.81,7.81,7.81,0,0,1,8-8,7.67,7.67,0,0,1,5,1.85l.69-1.34Zm-5.13,7.51A3.4,3.4,0,1,0,51,88.83,3.31,3.31,0,0,0,54.41,85.34Z"/><path class="cls-1" d="M62.82,86.93v-9.1H68.3v8.86c0,1.68.91,2.67,2.38,2.67s2.35-1,2.35-2.67V77.83h5.49v9.1c0,4.45-3.14,7.36-7.84,7.36S62.82,91.38,62.82,86.93Z"/><path class="cls-1" d="M81.77,77.83h5.49V93.77H81.77Zm0-6.65h5.41v4.65H81.81Z"/><path class="cls-1" d="M115.17,83.77v10h-5.49V84.45c0-1.66-.61-2.47-1.78-2.47-1.51,0-2.28,1-2.28,3v8.74h-5.35V84.45c0-1.61-.61-2.47-1.76-2.47-1.49,0-2.3,1.07-2.3,3v8.74H90.72V77.83h3.86l.78,1.71A6.14,6.14,0,0,1,100,77.36a5.35,5.35,0,0,1,4.57,2.35,6.18,6.18,0,0,1,4.89-2.35C112.9,77.36,115.17,80,115.17,83.77Z"/><path class="cls-1" d="M118.45,77.83h5.49V93.77h-5.49Zm0-6.65h5.4v4.65h-5.4Z"/><path class="cls-1" d="M143.82,85.65a9,9,0,0,1-.12,1.45H131.87a3.09,3.09,0,0,0,3.25,2.77A3.18,3.18,0,0,0,138,88.38h5.47a8.74,8.74,0,0,1-17-2.59,8.31,8.31,0,0,1,8.65-8.48c5.14,0,8.7,3.66,8.7,8.34ZM132,84.06h6.44a3.2,3.2,0,0,0-3.29-2.45A3.08,3.08,0,0,0,132,84.06Z"/><path class="cls-1" d="M162.07,84.05v9.72h-5.48v-9c0-1.86-.7-2.78-2.08-2.78-1.71,0-2.7,1.2-2.7,3.23v8.51h-5.49V77.83h3.85l.76,1.64a6.6,6.6,0,0,1,5-2.11C159.65,77.36,162.07,80,162.07,84.05Z"/><path class="cls-1" d="M176,89v4.81h-3.78c-3.52,0-5.66-2.16-5.66-5.7v-6h-2.92V80.77l7.14-7.6h1.13v4.66h4v4.23h-3.86v5.07A1.69,1.69,0,0,0,173.89,89Z"/><path class="cls-1" d="M177.49,85.8c0-4.94,3.74-8.49,8.94-8.49s8.93,3.55,8.93,8.49-3.75,8.49-8.93,8.49S177.49,90.72,177.49,85.8Zm12.37,0a3.44,3.44,0,1,0-3.43,3.56A3.35,3.35,0,0,0,189.86,85.8Z"/><path class="cls-1" d="M21.85,107.28v21H17.91l-.5-1.15a7.14,7.14,0,0,1-4.66,1.67,8.24,8.24,0,0,1,0-16.47,7.28,7.28,0,0,1,3.84,1.07v-6.14Zm-4.93,13.3a3.46,3.46,0,1,0-3.46,3.53A3.41,3.41,0,0,0,16.92,120.58Z"/><path class="cls-1" d="M41.11,120.43a9.67,9.67,0,0,1-.11,1.41H29.53a3,3,0,0,0,3.15,2.69,3.11,3.11,0,0,0,2.8-1.45h5.29a8.13,8.13,0,0,1-8.09,5.73,8.23,8.23,0,1,1,0-16.46c5,0,8.43,3.55,8.43,8.08ZM29.63,118.9h6.24a3.11,3.11,0,0,0-3.19-2.38A3,3,0,0,0,29.63,118.9Z"/><path class="cls-1" d="M66,115.51a7.13,7.13,0,0,1-7.42,7.26h-3v5.53H50v-20h8.52A7.11,7.11,0,0,1,66,115.51Zm-5.67,0a2.3,2.3,0,0,0-2.41-2.43H55.54V118h2.33A2.3,2.3,0,0,0,60.28,115.53Z"/><path class="cls-1" d="M84.56,112.84v15.44H80.45L80,127.19a7.31,7.31,0,0,1-4.66,1.62,8.22,8.22,0,0,1,0-16.44A7.3,7.3,0,0,1,80.05,114l.54-1.2Zm-5.06,7.73A3.46,3.46,0,1,0,76,124.1,3.4,3.4,0,0,0,79.5,120.57Z"/><path class="cls-1" d="M95.56,128.81c-5,0-8.53-3.47-8.53-8.25s3.56-8.19,8.55-8.19a7.85,7.85,0,0,1,8.17,6.85H98.57a3.13,3.13,0,0,0-3-2.08,3.19,3.19,0,0,0-3.2,3.43,3.23,3.23,0,0,0,3.2,3.47,3.1,3.1,0,0,0,3-2.25h5.23a8,8,0,0,1-8.25,7Z"/><path class="cls-1" d="M106.12,112.86h5.32V128.3h-5.32Zm0-6.45h5.24v4.51h-5.24Z"/><path class="cls-1" d="M130.7,120.43a9.67,9.67,0,0,1-.11,1.41H119.13a3,3,0,0,0,3.15,2.69,3.11,3.11,0,0,0,2.79-1.45h5.29a8.4,8.4,0,1,1-8.08-10.73c5,0,8.42,3.55,8.42,8.08Zm-11.48-1.53h6.24a3.1,3.1,0,0,0-3.18-2.38A3,3,0,0,0,119.22,118.9Z"/><path class="cls-1" d="M148.39,118.88v9.42h-5.31v-8.68c0-1.8-.68-2.69-2-2.69-1.66,0-2.61,1.16-2.61,3.12v8.25h-5.32V112.86h3.73l.73,1.59a6.43,6.43,0,0,1,4.86-2C146,112.4,148.39,115,148.39,118.88Z"/><path class="cls-1" d="M161.89,123.64v4.66h-3.66c-3.42,0-5.49-2.09-5.49-5.52V117h-2.83v-1.24l6.92-7.37h1.09v4.52h3.88V117h-3.74v4.92a1.63,1.63,0,0,0,1.78,1.77Z"/><path class="cls-1" d="M180.15,120.43a9.67,9.67,0,0,1-.11,1.41H168.57a3,3,0,0,0,3.15,2.69,3.11,3.11,0,0,0,2.79-1.45h5.3a8.41,8.41,0,1,1-8.09-10.73c5,0,8.43,3.55,8.43,8.08Zm-11.49-1.53h6.25a3.11,3.11,0,0,0-3.19-2.38A3,3,0,0,0,168.66,118.9Z"/><path class="cls-1" d="M181.72,123.24h5.12a1.59,1.59,0,0,0,1.79,1.65c.78,0,1.52-.4,1.52-1.2s-1.17-1.14-2.65-1.39c-2.4-.39-5.57-1.11-5.57-4.85,0-3.1,2.64-5.1,6.59-5.1s6.48,2.09,6.54,5.22h-5c0-1-.66-1.44-1.62-1.44s-1.43.42-1.43,1.14c0,.87,1.18,1.08,2.65,1.34,2.44.43,5.68.94,5.68,4.86,0,3.22-2.72,5.34-6.83,5.34S181.77,126.58,181.72,123.24Z"/></svg>